<svg width="33" height="32" viewBox="0 0 33 32" fill="none" xmlns="http://www.w3.org/2000/svg">
<path d="M24.45 25C22.3667 25 20.3083 24.5458 18.275 23.6375C16.2417 22.7292 14.3917 21.4417 12.725 19.775C11.0583 18.1083 9.77083 16.2583 8.8625 14.225C7.95417 12.1917 7.5 10.1333 7.5 8.05C7.5 7.75 7.6 7.5 7.8 7.3C8 7.1 8.25 7 8.55 7H12.6C12.8333 7 13.0417 7.07917 13.225 7.2375C13.4083 7.39583 13.5167 7.58333 13.55 7.8L14.2 11.3C14.2333 11.5667 14.225 11.7917 14.175 11.975C14.125 12.1583 14.0333 12.3167 13.9 12.45L11.475 14.9C11.8083 15.5167 12.2042 16.1125 12.6625 16.6875C13.1208 17.2625 13.625 17.8167 14.175 18.35C14.6917 18.8667 15.2333 19.3458 15.8 19.7875C16.3667 20.2292 16.9667 20.6333 17.6 21L19.95 18.65C20.1 18.5 20.2958 18.3875 20.5375 18.3125C20.7792 18.2375 21.0167 18.2167 21.25 18.25L24.7 18.95C24.9333 19.0167 25.125 19.1375 25.275 19.3125C25.425 19.4875 25.5 19.6833 25.5 19.9V23.95C25.5 24.25 25.4 24.5 25.2 24.7C25 24.9 24.75 25 24.45 25ZM10.525 13L12.175 11.35L11.75 9H9.525C9.60833 9.68333 9.725 10.3583 9.875 11.025C10.025 11.6917 10.2417 12.35 10.525 13ZM19.475 21.95C20.125 22.2333 20.7875 22.4583 21.4625 22.625C22.1375 22.7917 22.8167 22.9 23.5 22.95V20.75L21.15 20.275L19.475 21.95Z" fill="white"/>
</svg>
