<svg width="64" height="64" viewBox="0 0 64 64" fill="none" xmlns="http://www.w3.org/2000/svg">
<rect width="64" height="64" rx="8" fill="#DB323E"/>
<path d="M54 25H52C51.45 25 51 25.45 51 26V28H49V27C49 25.35 47.65 24 46 24H41.72L40.95 21.68C40.81 21.28 40.43 21 40 21H38V17H40C40.55 17 41 16.55 41 16C41 15.45 40.55 15 40 15H24C23.45 15 23 15.45 23 16C23 16.55 23.45 17 24 17H26V21H24C23.57 21 23.19 21.28 23.05 21.68L22.83 22.35C22.07 18.73 18.85 16 15 16C10.59 16 7 19.59 7 24C7 28.41 10.59 32 15 32V43C15 44.6499 16.35 46 18 46H22.28L23.05 48.32C23.19 48.72 23.57 49 24 49H40C40.43 49 40.81 48.72 40.95 48.32L41.72 46H46C47.65 46 49 44.6499 49 43V42H51V44C51 44.55 51.45 45 52 45H54C55.65 45 57 43.6499 57 42V28C57 26.35 55.65 25 54 25ZM28 17H36V21H28V17ZM19 44H18C17.45 44 17 43.55 17 43V31.74C17.71 31.55 18.38 31.28 19 30.92V44ZM19.29 28.19C18.2 29.3 16.68 30 15 30C11.69 30 9 27.31 9 24C9 20.69 11.69 18 15 18C18.31 18 21 20.69 21 24C21 25.63 20.35 27.1 19.3 28.18C19.2933 28.18 19.29 28.1833 19.29 28.19ZM43 44H41C40.57 44 40.19 44.28 40.05 44.68L39.28 47H24.72L23.95 44.68C23.81 44.28 23.43 44 23 44H21V29.27C21.82 28.35 22.42 27.23 22.74 26H23C23.43 26 23.81 25.72 23.95 25.32L24.72 23H39.28L40.05 25.32C40.19 25.72 40.57 26 41 26H43V44ZM47 43C47 43.55 46.55 44 46 44H45V26H46C46.55 26 47 26.45 47 27V43ZM51 40H49V30H51V40ZM55 42C55 42.55 54.55 43 54 43H53V27H54C54.55 27 55 27.45 55 28V42Z" fill="white"/>
<path d="M41.2939 33.0986C41.5234 32.9658 41.6909 32.748 41.7598 32.4912C41.8286 32.2354 41.7925 31.9619 41.6601 31.7324L39.6601 28.2676C39.5273 28.0381 39.3091 27.8701 39.0527 27.8018C38.7969 27.7334 38.5234 27.7686 38.2939 27.9014C37.6064 28.2998 36.7851 28.2998 36.0976 27.9014C35.4101 27.5049 34.9995 26.794 34.9995 26C34.9995 25.4473 34.5518 25 33.9995 25H29.9995C29.4473 25 28.9995 25.4473 28.9995 26C28.9995 26.794 28.5889 27.5049 27.9014 27.9014C27.2139 28.2988 26.3926 28.2998 25.7051 27.9014C25.4756 27.7705 25.2026 27.7344 24.9463 27.8018C24.6899 27.8701 24.4717 28.0381 24.3389 28.2676L22.3389 31.7324C22.2065 31.9619 22.1704 32.2354 22.2393 32.4912C22.3081 32.7481 22.4756 32.9658 22.7051 33.0986C23.3926 33.4951 23.8032 34.206 23.8032 35C23.8032 35.794 23.3926 36.5049 22.7051 36.9014C22.4756 37.0342 22.3081 37.252 22.2393 37.5088C22.1704 37.7646 22.2065 38.0381 22.3389 38.2676L24.3389 41.7324C24.4717 41.9619 24.6899 42.1299 24.9463 42.1982C25.2002 42.2646 25.4746 42.2295 25.7051 42.0986C26.3926 41.7002 27.2139 41.7002 27.9014 42.0986C28.5889 42.4951 28.9995 43.2061 28.9995 44C28.9995 44.5527 29.4473 45 29.9995 45H33.9995C34.5518 45 34.9995 44.5527 34.9995 44C34.9995 43.2061 35.4101 42.4951 36.0976 42.0986C36.7842 41.7002 37.6055 41.7002 38.2939 42.0986C38.5244 42.2305 38.7974 42.2656 39.0527 42.1982C39.3091 42.1299 39.5273 41.9619 39.6601 41.7324L41.6601 38.2676C41.7925 38.0381 41.8286 37.7646 41.7598 37.5088C41.6909 37.2519 41.5234 37.0342 41.2939 36.9014C40.6064 36.5049 40.1958 35.794 40.1958 35C40.1958 34.206 40.6064 33.4951 41.2939 33.0986ZM39.4868 38.0322L38.3691 39.9678C37.2822 39.6475 36.1142 39.7793 35.0976 40.3662C34.081 40.9531 33.3813 41.8994 33.1172 43H30.8818C30.6177 41.8994 29.918 40.9531 28.9014 40.3662C27.8838 39.7793 26.7158 39.6465 25.6299 39.9678L24.5122 38.0322C25.3335 37.2529 25.8032 36.1738 25.8032 35C25.8032 33.8262 25.3335 32.7471 24.5122 31.9678L25.6299 30.0322C26.7163 30.3525 27.8852 30.2197 28.9014 29.6338C29.918 29.0469 30.6177 28.1006 30.8818 27H33.1172C33.3813 28.1006 34.081 29.0469 35.0976 29.6338C36.1147 30.2197 37.2817 30.3525 38.3691 30.0322L39.4868 31.9678C38.6655 32.7471 38.1958 33.8262 38.1958 35C38.1958 36.1738 38.6655 37.2529 39.4868 38.0322Z" fill="white"/>
<path d="M32 31C29.7944 31 28 32.794 28 35C28 37.206 29.7944 39 32 39C34.2056 39 36 37.206 36 35C36 32.794 34.2056 31 32 31ZM32 37C30.897 37 30 36.1025 30 35C30 33.8975 30.897 33 32 33C33.103 33 34 33.8975 34 35C34 36.1025 33.103 37 32 37Z" fill="white"/>
<path d="M18.707 21.293C18.3164 20.9023 17.6836 20.9023 17.293 21.293L14 24.5859L12.707 23.293C12.3164 22.9023 11.6836 22.9023 11.293 23.293C10.9023 23.6836 10.9023 24.3164 11.293 24.707L13.293 26.707C13.4883 26.9023 13.7441 27 14 27C14.2559 27 14.5117 26.9023 14.707 26.707L18.707 22.707C19.0976 22.3164 19.0976 21.6836 18.707 21.293Z" fill="white"/>
</svg>
