<svg width="65" height="64" viewBox="0 0 65 64" fill="none" xmlns="http://www.w3.org/2000/svg">
<rect x="0.5" width="64" height="64" rx="8" fill="#DB323E"/>
<path d="M56.5 27C57.05 27 57.5 26.55 57.5 26V15C57.5 14.73 57.39 14.48 57.21 14.29L50.21 7.28998C50.02 7.10999 49.77 7 49.5 7H22.5C20.85 7 19.5 8.34998 19.5 10V33H14.5C13.15 33 12 33.9 11.63 35.13C10.4 35.5 9.5 36.65 9.5 38V41.07C9.5 41.61 9.76001 42.11 10.19 42.43C10.58 42.71 11.08 42.79 11.54 42.69C11.69 44.02 12.29 45.27 13.26 46.25C13.43 46.42 13.61 46.57 13.8 46.72C10.11 48.2 7.5 51.8 7.5 56C7.5 56.55 7.95001 57 8.5 57H54.5C56.15 57 57.5 55.65 57.5 54V34C57.5 33.45 57.05 33 56.5 33C55.95 33 55.5 33.45 55.5 34V54C55.5 54.55 55.05 55 54.5 55H27.45C27.07 51.23 24.59 48.07 21.2 46.72C22.35 45.81 23.16 44.49 23.41 42.98C23.44 42.99 23.47 43 23.5 43C23.63 43 23.76 42.98 23.88 42.92C24.26 42.77 24.5 42.4 24.5 42V37C24.5 35.14 23.22 33.59 21.5 33.14V10C21.5 9.45001 21.95 9 22.5 9H48.5V15C48.5 15.55 48.95 16 49.5 16H55.5V26C55.5 26.55 55.95 27 56.5 27ZM25.44 55H9.56C10.06 51.06 13.43 48 17.5 48C21.57 48 24.94 51.06 25.44 55ZM21.5 42C21.5 44.21 19.71 46 17.5 46C16.43 46 15.43 45.58 14.67 44.84C13.92 44.07 13.5 43.07 13.5 42V41.72C14.04 41.31 14.51 40.83 14.9 40.27C16.12 40.75 17.43 41 18.74 41H19C19.89 41 20.74 41.25 21.5 41.69V42ZM22.5 37V39.93C21.45 39.32 20.25 39 19 39H18.74C17.43 39 16.12 38.69 14.95 38.11C14.45 37.86 13.85 38.06 13.61 38.55C13.15 39.46 12.41 40.17 11.5 40.59V38C11.5 37.45 11.95 37 12.5 37C13.05 37 13.5 36.55 13.5 36C13.5 35.45 13.95 35 14.5 35H20.5C21.6 35 22.5 35.9 22.5 37ZM50.5 14V10.41L54.09 14H50.5Z" fill="white"/>
<path d="M24.5 22H28.5C29.0527 22 29.5 21.5522 29.5 21V17C29.5 16.4477 29.0527 16 28.5 16H24.5C23.9473 16 23.5 16.4477 23.5 17V21C23.5 21.5522 23.9473 22 24.5 22ZM25.5 18H27.5V20H25.5V18Z" fill="white"/>
<path d="M32.5 18H45.5C46.0527 18 46.5 17.5523 46.5 17C46.5 16.4477 46.0527 16 45.5 16H32.5C31.9473 16 31.5 16.4477 31.5 17C31.5 17.5523 31.9473 18 32.5 18Z" fill="white"/>
<path d="M32.5 22H45.5C46.0527 22 46.5 21.5523 46.5 21C46.5 20.4477 46.0527 20 45.5 20H32.5C31.9473 20 31.5 20.4477 31.5 21C31.5 21.5523 31.9473 22 32.5 22Z" fill="white"/>
<path d="M23.5 29C23.5 29.5522 23.9473 30 24.5 30H28.5C29.0527 30 29.5 29.5522 29.5 29V25C29.5 24.4477 29.0527 24 28.5 24H24.5C23.9473 24 23.5 24.4477 23.5 25V29ZM25.5 26H27.5V28H25.5V26Z" fill="white"/>
<path d="M32.5 26H45.5C46.0527 26 46.5 25.5523 46.5 25C46.5 24.4477 46.0527 24 45.5 24H32.5C31.9473 24 31.5 24.4477 31.5 25C31.5 25.5523 31.9473 26 32.5 26Z" fill="white"/>
<path d="M32.5 30H45.5C46.0527 30 46.5 29.5523 46.5 29C46.5 28.4477 46.0527 28 45.5 28H32.5C31.9473 28 31.5 28.4477 31.5 29C31.5 29.5523 31.9473 30 32.5 30Z" fill="white"/>
<path d="M26.5 34H45.5C46.0527 34 46.5 33.5523 46.5 33C46.5 32.4477 46.0527 32 45.5 32H26.5C25.9473 32 25.5 32.4477 25.5 33C25.5 33.5523 25.9473 34 26.5 34Z" fill="white"/>
<path d="M43.793 47.707C43.9883 47.9023 44.2441 48 44.5 48C44.7559 48 45.0117 47.9023 45.207 47.707L49.207 43.707C49.5976 43.3164 49.5976 42.6836 49.207 42.293C48.8164 41.9023 48.1836 41.9023 47.793 42.293L44.5 45.5859L43.207 44.293C42.8164 43.9023 42.1836 43.9023 41.793 44.293C41.4023 44.6836 41.4023 45.3164 41.793 45.707L43.793 47.707Z" fill="white"/>
<path d="M45.5 53C49.9111 53 53.5 49.4111 53.5 45C53.5 40.5889 49.9111 37 45.5 37C41.0889 37 37.5 40.5889 37.5 45C37.5 49.4111 41.0889 53 45.5 53ZM45.5 39C48.8086 39 51.5 41.6914 51.5 45C51.5 48.3086 48.8086 51 45.5 51C42.1914 51 39.5 48.3086 39.5 45C39.5 41.6914 42.1914 39 45.5 39Z" fill="white"/>
<path d="M56.727 29.0258C56.1892 28.9006 55.6516 29.235 55.5263 29.7729C55.401 30.3108 55.7355 30.8484 56.2734 30.9737C56.8113 31.0989 57.3489 30.7645 57.4741 30.2266C57.5995 29.6887 57.2649 29.1511 56.727 29.0258Z" fill="white"/>
</svg>
