<svg width="65" height="64" viewBox="0 0 65 64" fill="none" xmlns="http://www.w3.org/2000/svg">
<rect x="0.5" width="64" height="64" rx="8" fill="#DB323E"/>
<path d="M41.5003 37.9814H23.5003C23.1536 37.9814 22.8323 38.1611 22.6497 38.4556C22.4671 38.7505 22.4505 39.1187 22.6058 39.4287L24.6058 43.4287C24.7757 43.7676 25.1214 43.9814 25.5003 43.9814H39.5003C39.8792 43.9814 40.2249 43.7676 40.3948 43.4287L42.3948 39.4287C42.5501 39.1186 42.5335 38.7505 42.3509 38.4556C42.1683 38.1611 41.847 37.9814 41.5003 37.9814ZM38.8821 41.9814H26.1185L25.1185 39.9814H39.8821L38.8821 41.9814Z" fill="white"/>
<path d="M56.5 30.02H53.5C53.19 30.02 52.89 30.17 52.7 30.42L50.85 32.89L47.9 24.07C47.5 22.84 46.35 22.02 45.06 22.02H19.94C18.65 22.02 17.5 22.84 17.1 24.07L14.15 32.89L12.3 30.42C12.11 30.17 11.81 30.02 11.5 30.02H8.5C7.95001 30.02 7.5 30.47 7.5 31.02V35.02C7.5 35.57 7.95001 36.02 8.5 36.02H10.89L9.96002 36.58C9.20001 37.03 8.71002 37.81 8.56 38.66C8.53003 38.76 8.5 38.87 8.5 38.98C8.5 39.01 8.51001 39.03 8.51001 39.05C8.51001 39.08 8.5 39.12 8.5 39.15V44.98C8.5 46.64 9.84998 47.98 11.5 47.98H13.5V48.98C13.5 51.74 15.74 53.98 18.5 53.98C21.26 53.98 23.5 51.74 23.5 48.98V47.98H41.5V48.98C41.5 51.74 43.74 53.98 46.5 53.98C49.26 53.98 51.5 51.74 51.5 48.98V47.98H53.5C55.15 47.98 56.5 46.64 56.5 44.98V38.37C56.5 37.43 56.07 36.58 55.36 36.02H56.5C57.05 36.02 57.5 35.57 57.5 35.02V31.02C57.5 30.47 57.05 30.02 56.5 30.02ZM18.99 24.7C19.13 24.29 19.51 24.02 19.94 24.02H45.06C45.49 24.02 45.87 24.29 46.01 24.7L49.11 34.02H47.41C46.93 31.19 44.47 29.02 41.5 29.02C38.53 29.02 36.07 31.19 35.59 34.02H15.89L18.99 24.7ZM45.36 34.02H37.64C38.09 32.3 39.64 31.02 41.5 31.02C43.36 31.02 44.91 32.3 45.36 34.02ZM9.5 34.02V32.02H11L12.5 34.02H9.5ZM21.5 48.98C21.5 50.64 20.15 51.98 18.5 51.98C16.85 51.98 15.5 50.64 15.5 48.98V47.98H21.5V48.98ZM49.5 48.98C49.5 50.64 48.15 51.98 46.5 51.98C44.85 51.98 43.5 50.64 43.5 48.98V47.98H49.5V48.98ZM54.5 44.98C54.5 45.53 54.05 45.98 53.5 45.98H11.5C10.95 45.98 10.5 45.53 10.5 44.98V39.98H12.5V42.98C12.5 43.53 12.95 43.98 13.5 43.98H20.5C20.85 43.98 21.17 43.8 21.35 43.51C21.53 43.21 21.55 42.84 21.39 42.53L21.05 41.85C19.86 39.46 17.46 37.98 14.79 37.98H11.51L14.78 36.02H50.31L53.87 37.45C54.12 37.55 54.31 37.74 54.41 37.98H50.21C47.54 37.98 45.14 39.46 43.95 41.85L43.61 42.53C43.45 42.84 43.47 43.21 43.65 43.51C43.83 43.8 44.15 43.98 44.5 43.98H51.5C52.05 43.98 52.5 43.53 52.5 42.98V39.98H54.5L54.5 44.98ZM14.5 41.98V39.98H14.79C16.39 39.98 17.86 40.73 18.79 41.98H14.5ZM50.5 39.98V41.98H46.21C47.14 40.73 48.61 39.98 50.21 39.98H50.5ZM55.5 34.02H52.5L54 32.02H55.5V34.02Z" fill="white"/>
<path d="M9.1582 22.96C10.2783 23.3672 11.1533 24.2427 11.5605 25.3618C11.7041 25.7568 12.0791 26.02 12.5 26.02C12.9209 26.02 13.2959 25.7568 13.4394 25.3618C13.8467 24.2427 14.7217 23.3672 15.8418 22.96C16.2373 22.8159 16.5 22.4404 16.5 22.02C16.5 21.5996 16.2373 21.2241 15.8418 21.0801C14.7217 20.6729 13.8467 19.7974 13.4395 18.6782C13.2959 18.2832 12.9209 18.02 12.5 18.02C12.0791 18.02 11.7041 18.2832 11.5605 18.6782C11.1533 19.7974 10.2783 20.6729 9.15821 21.0801C8.7627 21.2241 8.5 21.5996 8.5 22.02C8.5 22.4404 8.7627 22.8159 9.1582 22.96ZM12.5 21.0459C12.7861 21.4067 13.1133 21.7339 13.4746 22.02C13.1133 22.3061 12.7861 22.6333 12.5 22.9941C12.2139 22.6333 11.8867 22.3061 11.5254 22.02C11.8867 21.7339 12.2139 21.4067 12.5 21.0459Z" fill="white"/>
<path d="M15.1582 14.96C16.2783 15.3672 17.1533 16.2427 17.5605 17.3618C17.7041 17.7568 18.0791 18.02 18.5 18.02C18.9209 18.02 19.2959 17.7568 19.4394 17.3618C19.8467 16.2427 20.7217 15.3672 21.8418 14.96C22.2373 14.8159 22.5 14.4404 22.5 14.02C22.5 13.5996 22.2373 13.2241 21.8418 13.0801C20.7217 12.6729 19.8467 11.7974 19.4395 10.6782C19.2959 10.2832 18.9209 10.02 18.5 10.02C18.0791 10.02 17.7041 10.2832 17.5606 10.6782C17.1533 11.7974 16.2783 12.6729 15.1582 13.0801C14.7627 13.2241 14.5 13.5996 14.5 14.02C14.5 14.4404 14.7627 14.8159 15.1582 14.96ZM18.5 13.0459C18.7861 13.4067 19.1133 13.7339 19.4746 14.02C19.1133 14.3061 18.7861 14.6333 18.5 14.9941C18.2139 14.6333 17.8867 14.3061 17.5254 14.02C17.8867 13.7339 18.2139 13.4067 18.5 13.0459Z" fill="white"/>
<path d="M35.1582 14.96C36.2783 15.3672 37.1533 16.2427 37.5605 17.3618C37.7041 17.7568 38.0791 18.02 38.5 18.02C38.9209 18.02 39.2959 17.7568 39.4394 17.3618C39.8467 16.2427 40.7217 15.3672 41.8418 14.96C42.2373 14.8159 42.5 14.4404 42.5 14.02C42.5 13.5996 42.2373 13.2241 41.8418 13.0801C40.7217 12.6729 39.8467 11.7974 39.4395 10.6782C39.2959 10.2832 38.9209 10.02 38.5 10.02C38.0791 10.02 37.7041 10.2832 37.5606 10.6782C37.1533 11.7974 36.2783 12.6729 35.1582 13.0801C34.7627 13.2241 34.5 13.5996 34.5 14.02C34.5 14.4404 34.7627 14.8159 35.1582 14.96ZM38.5 13.0459C38.7861 13.4067 39.1133 13.7339 39.4746 14.02C39.1133 14.3061 38.7861 14.6333 38.5 14.9941C38.2139 14.6333 37.8867 14.3061 37.5254 14.02C37.8867 13.7339 38.2139 13.4067 38.5 13.0459Z" fill="white"/>
<path d="M47.1582 20.96C48.2783 21.3672 49.1533 22.2427 49.5605 23.3618C49.7041 23.7568 50.0791 24.02 50.5 24.02C50.9209 24.02 51.2959 23.7568 51.4394 23.3618C51.8467 22.2427 52.7217 21.3672 53.8418 20.96C54.2373 20.8159 54.5 20.4404 54.5 20.02C54.5 19.5996 54.2373 19.2241 53.8418 19.0801C52.7217 18.6729 51.8467 17.7974 51.4395 16.6782C51.2959 16.2832 50.9209 16.02 50.5 16.02C50.0791 16.02 49.7041 16.2832 49.5606 16.6782C49.1533 17.7974 48.2783 18.6729 47.1582 19.0801C46.7627 19.2241 46.5 19.5996 46.5 20.02C46.5 20.4404 46.7627 20.8159 47.1582 20.96ZM50.5 19.0459C50.7861 19.4067 51.1133 19.7339 51.4746 20.02C51.1133 20.3061 50.7861 20.6333 50.5 20.9941C50.2139 20.6333 49.8867 20.3061 49.5254 20.02C49.8867 19.7339 50.2139 19.4067 50.5 19.0459Z" fill="white"/>
</svg>
