<svg width="64" height="64" viewBox="0 0 64 64" fill="none" xmlns="http://www.w3.org/2000/svg">
<rect width="64" height="64" rx="8" fill="#DB323E"/>
<path d="M56 24.8902C51.7564 24.8902 49.1299 21.3297 49.1299 18.0304C49.1299 16.8414 49.4453 15.69 50.0669 14.6085C50.3423 14.13 50.1777 13.5196 49.6997 13.2437L39.2993 7.24375C39.0688 7.11143 38.7959 7.0748 38.5405 7.14414C38.2842 7.21299 38.0659 7.38096 37.9336 7.61094C36.6997 9.75205 34.4814 11.0304 32 11.0304C29.5186 11.0304 27.3003 9.75205 26.0664 7.61094C25.9341 7.38096 25.7158 7.21299 25.4595 7.14414C25.2022 7.0748 24.9297 7.11143 24.7007 7.24375L14.3003 13.2437C13.8223 13.5196 13.6577 14.13 13.9331 14.6085C14.5547 15.69 14.8701 16.8414 14.8701 18.0304C14.8701 21.3297 12.2437 24.8902 8 24.8902C7.44775 24.8902 7 25.338 7 25.8902V31.8902C7 32.4425 7.44775 32.8902 8 32.8902H16C16.5522 32.8902 17 32.4425 17 31.8902C17 23.6192 23.729 16.8902 32 16.8902C40.271 16.8902 47 23.6192 47 31.8902C47 32.4425 47.4478 32.8902 48 32.8902H56C56.5522 32.8902 57 32.4425 57 31.8902V25.8902C57 25.338 56.5522 24.8902 56 24.8902ZM55 30.8902H48.9707C48.4512 21.9801 41.0381 14.8902 32 14.8902C22.9619 14.8902 15.5488 21.9801 15.0293 30.8902H9V26.8341C13.4224 26.3365 16.8701 22.5782 16.8701 18.0304C16.8701 16.8126 16.6182 15.63 16.1196 14.503L24.8809 9.44884C26.5381 11.7086 29.1333 13.0304 32 13.0304C34.8667 13.0304 37.4619 11.7086 39.1191 9.44884L47.8804 14.503C47.3818 15.63 47.1299 16.8126 47.1299 18.0304C47.1299 22.5782 50.5776 26.3365 55 26.8341V30.8902Z" fill="white"/>
<path d="M54.36 47.5202C53.5 46.6602 52.48 45.9902 51.38 45.5502C52.37 44.6302 53 43.3402 53 41.8902C53 39.1302 50.76 36.8902 48 36.8902C45.24 36.8902 43 39.1302 43 41.8902C43 43.3502 43.64 44.6502 44.63 45.5602C42.62 46.3802 40.95 47.9102 39.96 49.8602C39.69 49.5002 39.4 49.1502 39.07 48.8302C38.1 47.8502 36.95 47.1002 35.7 46.6002C36.85 45.6902 37.66 44.3802 37.91 42.8702C37.94 42.8802 37.9699 42.8902 37.9999 42.8902C38.5432 42.8908 39 42.4306 39 41.8902V36.8902C39 34.6802 37.21 32.8902 35 32.8902H29C27.65 32.8902 26.5 33.7902 26.13 35.0202C24.9 35.3902 24 36.5402 24 37.8902V40.9602C24 41.5002 24.26 42.0002 24.69 42.3202C25.08 42.6002 25.58 42.6802 26.04 42.5802C26.19 43.9102 26.79 45.1602 27.76 46.1402C27.93 46.3102 28.1 46.4602 28.29 46.6002C27.04 47.1002 25.9 47.8502 24.94 48.8202C24.61 49.1502 24.32 49.5002 24.04 49.8602C23.05 47.9102 21.38 46.3802 19.37 45.5602C20.36 44.6502 21 43.3502 21 41.8902C21 39.1302 18.76 36.8902 16 36.8902C13.24 36.8902 11 39.1302 11 41.8902C11 43.3402 11.63 44.6302 12.62 45.5502C11.52 46.0002 10.5 46.6602 9.63 47.5302C7.92999 49.2302 7 51.4902 7 53.8902V55.8902C7 56.4402 7.45001 56.8902 8 56.8902H28C28.55 56.8902 29 56.4402 29 55.8902C29 55.3402 28.55 54.8902 28 54.8902H24.06C24.28 53.1302 25.07 51.5002 26.35 50.2302C27.85 48.7202 29.86 47.8902 32 47.8902C34.14 47.8902 36.15 48.7202 37.66 50.2402C38.93 51.5102 39.72 53.1302 39.94 54.8902H36C35.45 54.8902 35 55.3402 35 55.8902C35 56.4402 35.45 56.8902 36 56.8902H56C56.55 56.8902 57 56.4402 57 55.8902V53.8902C57 51.4902 56.07 49.2302 54.36 47.5202ZM16 38.8902C17.65 38.8902 19 40.2402 19 41.8902C19 43.5402 17.65 44.8902 16 44.8902C14.35 44.8902 13 43.5402 13 41.8902C13 40.2403 14.35 38.8902 16 38.8902ZM22.05 54.8902H8.99999V53.8902C8.99999 52.0302 9.72997 50.2702 11.04 48.9402C12.38 47.6202 14.14 46.8902 16 46.8902C19.16 46.8902 21.94 49.0702 22.74 52.0902C22.38 52.9802 22.14 53.9202 22.05 54.8902ZM26 40.4802V37.8902C26 37.3402 26.45 36.8902 27 36.8902C27.55 36.8902 28 36.4402 28 35.8902C28 35.3402 28.45 34.8902 29 34.8902H35C36.1 34.8902 37 35.7902 37 36.8902V39.8202C35.95 39.2102 34.75 38.8902 33.5 38.8902H33.24C31.93 38.8902 30.62 38.5802 29.45 38.0002C29.21 37.8802 28.94 37.8602 28.68 37.9402C28.43 38.0302 28.22 38.2102 28.11 38.4402C27.65 39.3502 26.91 40.0602 26 40.4802ZM32 45.8902C30.93 45.8902 29.93 45.4702 29.17 44.7302C28.42 43.9602 28 42.9602 28 41.8902V41.6102C28.54 41.2002 29.01 40.7202 29.4 40.1602C30.62 40.6402 31.93 40.8902 33.24 40.8902H33.5C34.4 40.8902 35.24 41.1402 36 41.5802V41.8902C36 44.1002 34.21 45.8902 32 45.8902ZM48 38.8902C49.65 38.8902 51 40.2402 51 41.8902C51 43.5402 49.65 44.8902 48 44.8902C46.35 44.8902 45 43.5402 45 41.8902C45 40.2403 46.35 38.8902 48 38.8902ZM55 54.8902H41.95C41.86 53.9202 41.62 52.9802 41.26 52.0902C42.06 49.0602 44.84 46.8902 48 46.8902C49.86 46.8902 51.62 47.6202 52.95 48.9302C54.27 50.2702 55 52.0302 55 53.8902V54.8902Z" fill="white"/>
<path d="M30 30.8903H34C34.5523 30.8903 35 30.4425 35 29.8903V24.8903H36C36.4043 24.8903 36.769 24.6466 36.9238 24.2731C37.0786 23.899 36.9932 23.4694 36.707 23.1832L32.707 19.1832C32.3164 18.7926 31.6836 18.7926 31.293 19.1832L27.293 23.1832C27.0068 23.4694 26.9214 23.899 27.0762 24.2731C27.231 24.6466 27.5957 24.8903 28 24.8903H29V29.8903C29 30.4425 29.4478 30.8903 30 30.8903ZM32 21.3043L33.6489 22.9537C33.27 23.0958 33 23.4615 33 23.8902V28.8902H31V23.8902C31 23.4615 30.73 23.0958 30.3511 22.9537L32 21.3043Z" fill="white"/>
<path d="M32.227 54.916C31.6891 54.7908 31.1515 55.1253 31.0263 55.6632C30.901 56.2011 31.2355 56.7387 31.7734 56.8639C32.3113 56.9892 32.8489 56.6547 32.9742 56.1168C33.0994 55.5789 32.7649 55.0413 32.227 54.916Z" fill="white"/>
</svg>
