<svg width="32" height="32" viewBox="0 0 32 32" fill="none" xmlns="http://www.w3.org/2000/svg">
<path d="M16 23.6875C18.0333 21.8209 19.5417 20.125 20.525 18.6C21.5083 17.075 22 15.7209 22 14.5375C22 12.7209 21.4208 11.2334 20.2625 10.075C19.1042 8.91669 17.6833 8.33752 16 8.33752C14.3167 8.33752 12.8958 8.91669 11.7375 10.075C10.5792 11.2334 10 12.7209 10 14.5375C10 15.7209 10.4917 17.075 11.475 18.6C12.4583 20.125 13.9667 21.8209 16 23.6875ZM16 25.6625C15.7667 25.6625 15.5333 25.6209 15.3 25.5375C15.0667 25.4542 14.8583 25.3292 14.675 25.1625C13.5917 24.1625 12.6333 23.1875 11.8 22.2375C10.9667 21.2875 10.2708 20.3667 9.7125 19.475C9.15417 18.5834 8.72917 17.725 8.4375 16.9C8.14583 16.075 8 15.2875 8 14.5375C8 12.0375 8.80417 10.0459 10.4125 8.56252C12.0208 7.07919 13.8833 6.33752 16 6.33752C18.1167 6.33752 19.9792 7.07919 21.5875 8.56252C23.1958 10.0459 24 12.0375 24 14.5375C24 15.2875 23.8542 16.075 23.5625 16.9C23.2708 17.725 22.8458 18.5834 22.2875 19.475C21.7292 20.3667 21.0333 21.2875 20.2 22.2375C19.3667 23.1875 18.4083 24.1625 17.325 25.1625C17.1417 25.3292 16.9333 25.4542 16.7 25.5375C16.4667 25.6209 16.2333 25.6625 16 25.6625ZM16 16.3375C16.55 16.3375 17.0208 16.1417 17.4125 15.75C17.8042 15.3584 18 14.8875 18 14.3375C18 13.7875 17.8042 13.3167 17.4125 12.925C17.0208 12.5334 16.55 12.3375 16 12.3375C15.45 12.3375 14.9792 12.5334 14.5875 12.925C14.1958 13.3167 14 13.7875 14 14.3375C14 14.8875 14.1958 15.3584 14.5875 15.75C14.9792 16.1417 15.45 16.3375 16 16.3375Z" fill="#EDF2FD"/>
</svg>
