<svg width="16" height="16" viewBox="0 0 16 16" fill="none" xmlns="http://www.w3.org/2000/svg">
<path d="M8 16C12.4183 16 16 12.4183 16 8C16 3.58172 12.4183 0 8 0C3.58172 0 0 3.58172 0 8C0 12.4183 3.58172 16 8 16Z" fill="#DB323E"/>
<path d="M11.3008 6.57667C11.3008 9.39871 8.00001 12.7247 8.00001 12.7247C8.00001 12.7247 4.69922 9.39871 4.69922 6.57667C4.69922 4.74989 6.17323 3.27588 8.00001 3.27588C9.82678 3.27588 11.3008 4.74989 11.3008 6.57667Z" fill="#292929"/>
<path d="M7.99991 8.23858C8.91835 8.23858 9.6629 7.49404 9.6629 6.57559C9.6629 5.65714 8.91835 4.9126 7.99991 4.9126C7.08146 4.9126 6.33691 5.65714 6.33691 6.57559C6.33691 7.49404 7.08146 8.23858 7.99991 8.23858Z" fill="#DB323E"/>
</svg>
