<svg width="65" height="64" viewBox="0 0 65 64" fill="none" xmlns="http://www.w3.org/2000/svg">
<path d="M30.4824 18.96C22.2114 18.96 15.4824 25.689 15.4824 33.96C15.4824 42.231 22.2114 48.96 30.4824 48.96C38.7534 48.96 45.4824 42.231 45.4824 33.96C45.4824 25.689 38.7534 18.96 30.4824 18.96ZM30.4824 46.96C23.314 46.96 17.4824 41.1284 17.4824 33.96C17.4824 26.7915 23.314 20.96 30.4824 20.96C37.6509 20.96 43.4824 26.7915 43.4824 33.96C43.4824 41.1284 37.6509 46.96 30.4824 46.96Z" fill="white"/>
<path d="M32.5581 7.04302C32.2793 7.02154 32.0068 7.11675 31.8027 7.30669C31.5986 7.49614 31.4824 7.76177 31.4824 8.04009V11.0049C31.1505 10.9907 30.8229 10.96 30.4824 10.96C24.1624 10.96 18.4305 13.5233 14.2691 17.6637C14.2537 17.6773 14.2339 17.6821 14.2192 17.6968C14.2045 17.7115 14.1997 17.7313 14.1861 17.7467C10.0457 21.9081 7.48242 27.64 7.48242 33.96C7.48242 40.28 10.0457 46.012 14.1861 50.1733C14.1997 50.1887 14.2045 50.2085 14.2192 50.2232C14.2339 50.2379 14.2537 50.2427 14.2691 50.2563C18.4305 54.3967 24.1624 56.96 30.4824 56.96C37.6714 56.96 44.889 53.2648 49.123 47.4173C51.9458 43.5188 53.4824 38.7731 53.4824 33.96C53.4824 33.6195 53.4518 33.292 53.4376 32.96H56.4023C56.6807 32.96 56.9463 32.8438 57.1357 32.6397C57.3252 32.4356 57.4204 32.1617 57.3994 31.8843C56.3984 18.7232 45.7192 8.044 32.5581 7.04302ZM45.9981 48.0616L43.9175 45.981C43.5268 45.5904 42.894 45.5904 42.5034 45.981C42.1128 46.3716 42.1128 47.0044 42.5034 47.3951L44.584 49.4757C41.0842 52.6595 36.5173 54.6705 31.4824 54.9093V51.96C31.4824 51.4078 31.0347 50.96 30.4824 50.96C29.9302 50.96 29.4824 51.4078 29.4824 51.96V54.9093C24.4475 54.6705 19.8807 52.6595 16.3808 49.4757L18.4614 47.3951C18.8521 47.0044 18.8521 46.3716 18.4614 45.981C18.0708 45.5904 17.438 45.5904 17.0474 45.981L14.9667 48.0616C11.7828 44.5617 9.771 39.9932 9.53034 34.96H12.4824C13.0347 34.96 13.4824 34.5123 13.4824 33.96C13.4824 33.4078 13.0347 32.96 12.4824 32.96H9.53034C9.771 27.9268 11.7828 23.3583 14.9667 19.8584C14.9667 19.8584 17.0398 21.9315 17.0474 21.939C17.4089 22.3005 18.0778 22.3227 18.4614 21.939C18.8521 21.5484 18.8521 20.9156 18.4614 20.525L16.3808 18.4443C20.1126 15.0496 25.0519 12.96 30.4824 12.96C30.8234 12.96 31.1509 12.9894 31.4824 13.005V16.0699C31.4824 16.5792 31.8652 17.0074 32.3716 17.0635C40.2036 17.938 46.5151 24.2491 47.3784 32.0699C47.4346 32.5767 47.8628 32.96 48.3726 32.96H51.4374C51.4531 33.2916 51.4824 33.6191 51.4824 33.96C51.4824 39.3905 49.3929 44.3298 45.9981 48.0616ZM49.2466 30.96C47.9639 22.9268 41.5259 16.4888 33.4824 15.1968V9.14312C44.812 10.5084 53.9341 19.6304 55.2993 30.96H49.2466Z" fill="white"/>
<path d="M45.3319 17.6965C44.9414 18.0871 44.9414 18.7202 45.3319 19.1107C45.7224 19.5013 46.3556 19.5013 46.7461 19.1107C47.1367 18.7202 47.1367 18.0871 46.7461 17.6965C46.3556 17.306 45.7224 17.306 45.3319 17.6965Z" fill="white"/>
<path d="M51.4976 27.3752C52.0165 27.1863 52.2841 26.6125 52.0952 26.0935C51.9063 25.5745 51.3325 25.307 50.8135 25.4958C50.2946 25.6847 50.027 26.2586 50.2158 26.7775C50.4047 27.2965 50.9786 27.5641 51.4976 27.3752Z" fill="white"/>
<path d="M38.3491 12.3471C37.8301 12.1582 37.2563 12.4258 37.0674 12.9447C36.8785 13.4637 37.1461 14.0376 37.6651 14.2264C38.1841 14.4153 38.7579 14.1478 38.9468 13.6288C39.1357 13.1098 38.8681 12.5359 38.3491 12.3471Z" fill="white"/>
<path d="M30.4824 30.96C28.8281 30.96 27.4824 32.3057 27.4824 33.96C27.4824 35.6143 28.8281 36.96 30.4824 36.96C32.1367 36.96 33.4824 35.6143 33.4824 33.96C33.4824 32.3057 32.1367 30.96 30.4824 30.96ZM30.4824 34.96C29.9312 34.96 29.4824 34.5112 29.4824 33.96C29.4824 33.4087 29.9312 32.96 30.4824 32.96C31.0337 32.96 31.4824 33.4087 31.4824 33.96C31.4824 34.5112 31.0337 34.96 30.4824 34.96Z" fill="white"/>
<path d="M30.4824 22.96C28.8281 22.96 27.4824 24.3057 27.4824 25.96C27.4824 27.6143 28.8281 28.96 30.4824 28.96C32.1367 28.96 33.4824 27.6143 33.4824 25.96C33.4824 24.3057 32.1367 22.96 30.4824 22.96ZM30.4824 26.96C29.9312 26.96 29.4824 26.5112 29.4824 25.96C29.4824 25.4087 29.9312 24.96 30.4824 24.96C31.0337 24.96 31.4824 25.4087 31.4824 25.96C31.4824 26.5112 31.0337 26.96 30.4824 26.96Z" fill="white"/>
<path d="M22.4824 30.96C20.8281 30.96 19.4824 32.3057 19.4824 33.96C19.4824 35.6143 20.8281 36.96 22.4824 36.96C24.1367 36.96 25.4824 35.6143 25.4824 33.96C25.4824 32.3057 24.1367 30.96 22.4824 30.96ZM22.4824 34.96C21.9312 34.96 21.4824 34.5112 21.4824 33.96C21.4824 33.4087 21.9312 32.96 22.4824 32.96C23.0337 32.96 23.4824 33.4087 23.4824 33.96C23.4824 34.5112 23.0337 34.96 22.4824 34.96Z" fill="white"/>
<path d="M30.4824 38.96C28.8281 38.96 27.4824 40.3057 27.4824 41.96C27.4824 43.6143 28.8281 44.96 30.4824 44.96C32.1367 44.96 33.4824 43.6143 33.4824 41.96C33.4824 40.3057 32.1367 38.96 30.4824 38.96ZM30.4824 42.96C29.9312 42.96 29.4824 42.5112 29.4824 41.96C29.4824 41.4087 29.9312 40.96 30.4824 40.96C31.0337 40.96 31.4824 41.4087 31.4824 41.96C31.4824 42.5112 31.0337 42.96 30.4824 42.96Z" fill="white"/>
<path d="M35.4824 33.96C35.4824 35.6143 36.8281 36.96 38.4824 36.96C40.1367 36.96 41.4824 35.6143 41.4824 33.96C41.4824 32.3057 40.1367 30.96 38.4824 30.96C36.8281 30.96 35.4824 32.3057 35.4824 33.96ZM39.4824 33.96C39.4824 34.5112 39.0337 34.96 38.4824 34.96C37.9312 34.96 37.4824 34.5112 37.4824 33.96C37.4824 33.4087 37.9312 32.96 38.4824 32.96C39.0337 32.96 39.4824 33.4087 39.4824 33.96Z" fill="white"/>
</svg>
