<svg width="65" height="64" viewBox="0 0 65 64" fill="none" xmlns="http://www.w3.org/2000/svg">
<path d="M44.1967 32.0425C43.4477 32.4761 42.5512 32.4761 41.8002 32.0425C41.0502 31.6089 40.602 30.8335 40.602 29.9673C40.602 29.4146 40.1547 28.9673 39.602 28.9673H36.0024C35.4497 28.9673 35.0024 29.4146 35.0024 29.9673C35.0024 30.8335 34.5542 31.6089 33.8042 32.0425C33.0532 32.4761 32.1567 32.4761 31.4077 32.0425C30.9301 31.7671 30.3178 31.9292 30.0415 32.4087L28.2417 35.5259C27.9653 36.0044 28.1294 36.6157 28.6079 36.8921C29.3579 37.3247 29.8061 38.1011 29.8061 38.9673C29.8061 39.8335 29.3579 40.6099 28.6079 41.0425C28.1294 41.3189 27.9653 41.9302 28.2417 42.4087L30.0415 45.5259C30.3178 46.0044 30.9301 46.1675 31.4077 45.8921C32.1567 45.4595 33.0532 45.4575 33.8042 45.8921C34.5542 46.3257 35.0024 47.1011 35.0024 47.9673C35.0024 48.52 35.4497 48.9673 36.0024 48.9673H39.602C40.1547 48.9673 40.602 48.52 40.602 47.9673C40.602 47.1011 41.0502 46.3257 41.8002 45.8921C42.5512 45.4575 43.4477 45.4595 44.1967 45.8921C44.6723 46.1675 45.2856 46.0044 45.5629 45.5259L47.3627 42.4087C47.6391 41.9302 47.475 41.3189 46.9965 41.0425C46.2465 40.6089 45.7983 39.8335 45.7983 38.9673C45.7983 38.1011 46.2465 37.3257 46.9965 36.8921C47.475 36.6157 47.6391 36.0044 47.3627 35.5259L45.5629 32.4087C45.2856 31.9292 44.6723 31.7671 44.1967 32.0425ZM45.186 42.1782L44.2748 43.7573C43.1245 43.4028 41.8793 43.5366 40.7993 44.1606C39.7202 44.7837 38.9819 45.7944 38.7143 46.9673H36.8901C36.6225 45.7944 35.8842 44.7837 34.8051 44.1606C33.7241 43.5366 32.478 43.4019 31.3295 43.7573L30.4174 42.1772C31.3002 41.3589 31.8061 40.2144 31.8061 38.9673C31.8061 37.7202 31.3002 36.5757 30.4174 35.7573L31.3295 34.1772C32.4789 34.5327 33.725 34.3979 34.8051 33.7739C35.8842 33.1509 36.6225 32.1401 36.8901 30.9673H38.7143C38.9819 32.1401 39.7202 33.1509 40.7993 33.7739C41.8793 34.397 43.1245 34.5327 44.2748 34.1772L45.186 35.7563C44.3041 36.5757 43.7983 37.7202 43.7983 38.9673C43.7983 40.2144 44.3041 41.3589 45.186 42.1782Z" fill="white"/>
<path d="M37.8018 34.9673C35.5957 34.9673 33.8018 36.7612 33.8018 38.9673C33.8018 41.1733 35.5957 42.9673 37.8018 42.9673C40.0078 42.9673 41.8018 41.1733 41.8018 38.9673C41.8018 36.7612 40.0078 34.9673 37.8018 34.9673ZM37.8018 40.9673C36.6992 40.9673 35.8018 40.0698 35.8018 38.9673C35.8018 37.8647 36.6992 36.9673 37.8018 36.9673C38.9043 36.9673 39.8018 37.8647 39.8018 38.9673C39.8018 40.0698 38.9043 40.9673 37.8018 40.9673Z" fill="white"/>
<path d="M54.8857 10.9673H52.8857C52.3358 10.9673 51.8857 11.4173 51.8857 11.9673V13.9673H49.8857V12.9673C49.8857 11.3173 48.5358 9.96729 46.8857 9.96729H42.6057L41.8358 7.64727C41.6957 7.24725 41.3157 6.96729 40.8857 6.96729H24.8857C24.4558 6.96729 24.0757 7.24725 23.9357 7.64727L23.1658 9.96729H18.8857C17.2357 9.96729 15.8857 11.3173 15.8857 12.9673V13.9673H13.8857V11.9673C13.8857 11.4173 13.4357 10.9673 12.8857 10.9673H10.8857C9.23572 10.9673 7.88574 12.3173 7.88574 13.9673V27.9673C7.88574 29.6172 9.23572 30.9673 10.8857 30.9673H12.8857C13.4357 30.9673 13.8857 30.5173 13.8857 29.9673V27.9673H15.8857V28.9673C15.8857 30.6172 17.2357 31.9673 18.8857 31.9673H23.1658L23.9357 34.2873C24.0158 34.5373 24.2058 34.7273 24.4257 34.8373C24.0158 36.1473 23.8057 37.5273 23.8057 38.9673C23.8057 46.6873 30.0858 52.9673 37.8057 52.9673C40.5757 52.9673 43.1658 52.1473 45.3458 50.7473L50.7758 56.1772C51.9047 57.3061 53.8536 57.3294 55.0057 56.1772C56.1757 55.0073 56.1757 53.1073 55.0057 51.9373L49.5757 46.5073C50.9758 44.3273 51.8057 41.7473 51.8057 38.9673C51.8057 35.9373 50.8257 33.1373 49.1857 30.8473C49.6157 30.3173 49.8857 29.6673 49.8857 28.9673V27.9673H51.8857V29.9673C51.8857 30.5173 52.3357 30.9673 52.8857 30.9673H54.8857C56.5358 30.9673 57.8857 29.6172 57.8857 27.9673V13.9673C57.8857 12.3173 56.5358 10.9673 54.8857 10.9673ZM11.8857 28.9673H10.8857C10.3358 28.9673 9.88574 28.5173 9.88574 27.9673V13.9673C9.88574 13.4173 10.3358 12.9673 10.8857 12.9673H11.8857V28.9673ZM15.8857 25.9673H13.8857V15.9673H15.8857V25.9673ZM45.8857 11.9673H46.8857C47.4357 11.9673 47.8857 12.4173 47.8857 12.9673V28.9673C47.8857 29.0573 47.8757 29.1473 47.8458 29.2372C47.2457 28.6172 46.5858 28.0573 45.8857 27.5573V11.9673ZM19.8857 29.9673H18.8857C18.3358 29.9673 17.8857 29.5173 17.8857 28.9673V12.9673C17.8857 12.4173 18.3358 11.9673 18.8857 11.9673H19.8857V29.9673ZM24.8358 30.6473C24.6957 30.2473 24.3157 29.9673 23.8857 29.9673H21.8857V11.9673H23.8857C24.3157 11.9673 24.6957 11.6873 24.8358 11.2873L25.6057 8.96729H40.1658L40.9357 11.2873C41.0757 11.6873 41.4558 11.9673 41.8857 11.9673H43.8857V26.3773C42.9058 25.8973 41.8657 25.5273 40.7758 25.2873C41.4957 23.9773 41.8857 22.4872 41.8857 20.9673C41.8857 16.0073 37.8458 11.9673 32.8857 11.9673C27.9257 11.9673 23.8857 16.0073 23.8857 20.9673C23.8857 24.1673 25.6157 27.0973 28.3157 28.6973C27.1558 29.7673 26.1757 31.0273 25.4257 32.4372L24.8358 30.6473ZM39.8857 20.9673C39.8857 22.4173 39.4058 23.8273 38.5757 25.0073C38.3157 24.9872 38.0657 24.9673 37.8057 24.9673C34.9257 24.9673 32.2557 25.8373 30.0258 27.3273C27.5358 26.2073 25.8857 23.7273 25.8857 20.9673C25.8857 17.1073 29.0258 13.9673 32.8857 13.9673C36.7457 13.9673 39.8857 17.1073 39.8857 20.9673ZM53.5958 53.3573C53.9857 53.7372 53.9857 54.3773 53.5958 54.7573C53.2057 55.1473 52.5757 55.1473 52.1857 54.7573L46.9558 49.5273C47.4658 49.0973 47.9357 48.6273 48.3657 48.1273L53.5958 53.3573ZM49.8057 38.9673C49.8057 45.5873 44.4158 50.9673 37.8057 50.9673C31.1857 50.9673 25.8057 45.5873 25.8057 38.9673C25.8057 37.3373 26.1357 35.7773 26.7258 34.3573V34.3473C28.5457 30.0173 32.8257 26.9673 37.8057 26.9673C44.4158 26.9673 49.8057 32.3473 49.8057 38.9673ZM51.8857 25.9673H49.8857V15.9673H51.8857V25.9673ZM55.8857 27.9673C55.8857 28.5173 55.4357 28.9673 54.8857 28.9673H53.8857V12.9673H54.8857C55.4357 12.9673 55.8857 13.4173 55.8857 13.9673V27.9673Z" fill="white"/>
<path d="M35.1787 18.2603L31.8857 21.5532L30.5928 20.2603C30.2021 19.8696 29.5693 19.8696 29.1787 20.2603C28.7881 20.6509 28.7881 21.2837 29.1787 21.6743L31.1787 23.6743C31.374 23.8696 31.6299 23.9673 31.8857 23.9673C32.1416 23.9673 32.3975 23.8696 32.5928 23.6743L36.5928 19.6743C36.9834 19.2837 36.9834 18.6509 36.5928 18.2603C36.2021 17.8696 35.5693 17.8696 35.1787 18.2603Z" fill="white"/>
</svg>
