<svg width="65" height="64" viewBox="0 0 65 64" fill="none" xmlns="http://www.w3.org/2000/svg">
<path d="M32.2217 13C26.1562 13 21.2217 17.9346 21.2217 24C21.2217 30.0654 26.1562 35 32.2217 35C38.2871 35 43.2217 30.0654 43.2217 24C43.2217 17.9346 38.2871 13 32.2217 13ZM41.2217 24C41.2217 24.5611 41.1633 25.1081 41.0646 25.6411L38.2217 24L41.0646 22.3589C41.1633 22.8919 41.2217 23.4389 41.2217 24ZM23.2217 24C23.2217 23.4389 23.28 22.8919 23.3788 22.3589L26.2217 24L23.3788 25.6411C23.28 25.1081 23.2217 24.5611 23.2217 24ZM26.3825 17.1647C27.2123 16.4547 28.1727 15.8976 29.2217 15.5251V18.8037L26.3825 17.1647ZM28.4983 20.6958C28.0546 21.1953 27.7158 21.7807 27.4994 22.4279L23.9802 20.3964C24.2506 19.7803 24.5918 19.204 24.9872 18.6689L28.4983 20.6958ZM27.4994 25.5721C27.7158 26.2193 28.0546 26.8047 28.4983 27.3042L24.9872 29.3311C24.5919 28.796 24.2506 28.2197 23.9802 27.6036L27.4994 25.5721ZM29.2217 29.1963V32.4749C28.1727 32.1024 27.2123 31.5453 26.3825 30.8353L29.2217 29.1963ZM29.2217 24C29.2217 22.3457 30.5674 21 32.2217 21C33.876 21 35.2217 22.3457 35.2217 24C35.2217 25.6543 33.876 27 32.2217 27C30.5674 27 29.2217 25.6543 29.2217 24ZM35.9451 20.6958L39.4562 18.6689C39.8515 19.204 40.1928 19.7803 40.4633 20.3963L36.9439 22.4279C36.7275 21.7807 36.3888 21.1953 35.9451 20.6958ZM35.2217 18.8037V15.5251C36.2706 15.8976 37.2311 16.4547 38.0609 17.1647L35.2217 18.8037ZM38.0609 30.8353C37.2311 31.5453 36.2706 32.1024 35.2217 32.4749V29.1963L38.0609 30.8353ZM35.9451 27.3042C36.3888 26.8047 36.7275 26.2193 36.9439 25.5721L40.4633 27.6037C40.1928 28.2197 39.8515 28.796 39.4562 29.3311L35.9451 27.3042ZM33.2217 15.059V19.1011C32.8984 19.0352 32.5641 19 32.2217 19C31.8793 19 31.5449 19.0352 31.2217 19.1011V15.059C31.5504 15.0224 31.8834 15 32.2217 15C32.56 15 32.8929 15.0224 33.2217 15.059ZM31.2217 32.941V28.8989C31.5449 28.9648 31.8793 29 32.2217 29C32.5641 29 32.8984 28.9648 33.2217 28.8989V32.941C32.8929 32.9776 32.56 33 32.2217 33C31.8834 33 31.5504 32.9776 31.2217 32.941Z" fill="white"/>
<path d="M50.2217 39H40.2047C45.5641 36.1362 49.2217 30.4894 49.2217 24C49.2217 14.626 41.5957 7 32.2217 7C22.8477 7 15.2217 14.626 15.2217 24C15.2217 30.4894 18.8793 36.1362 24.2386 39H14.2217C12.5674 39 11.2217 40.3457 11.2217 42V54C11.2217 55.6543 12.5674 57 14.2217 57H50.2217C51.876 57 53.2217 55.6543 53.2217 54V42C53.2217 40.3457 51.876 39 50.2217 39ZM23.8076 52L20.8076 55H17.6357L20.6357 52H23.8076ZM26.6357 52H29.8076L26.8076 55H23.6357L26.6357 52ZM32.6357 52H35.8076L32.8076 55H29.6357L32.6357 52ZM38.6357 52H41.8076L38.8076 55H35.6357L38.6357 52ZM44.6357 52H47.8076L44.8076 55H41.6357L44.6357 52ZM13.2217 50V46H51.2217V50H13.2217ZM26.8076 41L29.8076 44H26.6357L23.6357 41H26.8076ZM32.8076 41L35.8076 44H32.6357L29.6357 41H32.8076ZM44.6357 44L41.6357 41H44.8076L47.8076 44H44.6357ZM38.8076 41L41.8076 44H38.6357L35.6357 41H38.8076ZM23.8076 44H20.6357L17.6357 41H20.8076L23.8076 44ZM51.2217 42V44H50.6357L47.6357 41H50.2217C50.7734 41 51.2217 41.4487 51.2217 42ZM17.2217 24C17.2217 15.729 23.9502 9 32.2217 9C40.4932 9 47.2217 15.729 47.2217 24C47.2217 32.271 40.4932 39 32.2217 39C23.9502 39 17.2217 32.271 17.2217 24ZM13.2217 42C13.2217 41.4487 13.6699 41 14.2217 41H14.8076L17.8076 44H13.2217V42ZM13.2217 54V52H17.8076L14.8076 55H14.2217C13.6699 55 13.2217 54.5513 13.2217 54ZM51.2217 54C51.2217 54.5513 50.7734 55 50.2217 55H47.6357L50.6357 52H51.2217V54Z" fill="white"/>
</svg>
