<svg width="140" height="42" viewBox="0 0 140 42" fill="none" xmlns="http://www.w3.org/2000/svg">
<path d="M48.4119 28.6788H45.5437V14.7456H54.7964V17.3752H48.4119V20.2993H54.5017V22.9289H48.4119V28.6788Z" fill="#EDF2FD"/>
<path d="M59.2596 16.5903C58.9453 16.9043 58.5393 17.0613 58.0416 17.0613C57.5439 17.0613 57.138 16.9043 56.8236 16.5903C56.5093 16.2763 56.3522 15.8773 56.3522 15.3932C56.3522 14.9091 56.5093 14.5101 56.8236 14.1961C57.138 13.869 57.5439 13.7055 58.0416 13.7055C58.5393 13.7055 58.9453 13.869 59.2596 14.1961C59.5739 14.5101 59.7311 14.9091 59.7311 15.3932C59.7311 15.8773 59.5739 16.2763 59.2596 16.5903ZM56.6468 28.6788V18.3957H59.4364V28.6788H56.6468Z" fill="#EDF2FD"/>
<path d="M71.4287 18.3957L67.598 23.4588L71.5466 28.6788H68.1874L66.0264 25.5586L63.8655 28.6788H60.5063L64.4549 23.4588L60.6241 18.3957H63.9834L66.0264 21.3394L68.0695 18.3957H71.4287Z" fill="#EDF2FD"/>
<path d="M75.2209 16.5903C74.9066 16.9043 74.5006 17.0613 74.003 17.0613C73.5053 17.0613 73.0993 16.9043 72.785 16.5903C72.4707 16.2763 72.3135 15.8773 72.3135 15.3932C72.3135 14.9091 72.4707 14.5101 72.785 14.1961C73.0993 13.869 73.5053 13.7055 74.003 13.7055C74.5006 13.7055 74.9066 13.869 75.2209 14.1961C75.5352 14.5101 75.6924 14.9091 75.6924 15.3932C75.6924 15.8773 75.5352 16.2763 75.2209 16.5903ZM72.6082 28.6788V18.3957H75.3977V28.6788H72.6082Z" fill="#EDF2FD"/>
<path d="M80.5341 18.3957V19.6517C81.071 18.6574 82.0925 18.1602 83.5986 18.1602C84.8166 18.1602 85.753 18.5331 86.4078 19.2788C87.0627 20.0114 87.3901 21.0057 87.3901 22.2617V28.6788H84.6005V22.5757C84.6005 21.2281 84.0177 20.5544 82.8521 20.5544C82.1842 20.5544 81.6669 20.7572 81.3002 21.1627C80.9335 21.5552 80.7502 22.0982 80.7502 22.7916V28.6788H77.9606V18.3957H80.5341Z" fill="#EDF2FD"/>
<path d="M92.6837 14.7456L96.7698 20.1423L100.856 14.7456H103.488V28.6788H100.738V19.1807L96.8091 24.2241H96.7305L92.8016 19.1807V28.6788H90.0513V14.7456H92.6837Z" fill="#EDF2FD"/>
<path d="M114.902 27.364C113.906 28.3976 112.603 28.9143 110.992 28.9143C109.381 28.9143 108.078 28.3976 107.083 27.364C106.088 26.3174 105.59 25.0418 105.59 23.5373C105.59 22.0327 106.088 20.7637 107.083 19.7302C108.078 18.6835 109.381 18.1602 110.992 18.1602C112.603 18.1602 113.906 18.6835 114.902 19.7302C115.897 20.7637 116.395 22.0327 116.395 23.5373C116.395 25.0418 115.897 26.3174 114.902 27.364ZM109.106 21.3982C108.622 21.9215 108.38 22.6346 108.38 23.5373C108.38 24.44 108.622 25.153 109.106 25.6763C109.604 26.1996 110.233 26.4613 110.992 26.4613C111.752 26.4613 112.374 26.1996 112.859 25.6763C113.356 25.153 113.605 24.44 113.605 23.5373C113.605 22.6346 113.356 21.9215 112.859 21.3982C112.374 20.8749 111.752 20.6133 110.992 20.6133C110.233 20.6133 109.604 20.8749 109.106 21.3982Z" fill="#EDF2FD"/>
<path d="M123.138 26.2062V28.62C122.823 28.6985 122.385 28.7377 121.822 28.7377C119.713 28.7377 118.659 27.6911 118.659 25.5978V20.5936H117.264V18.3957H118.659V15.8445H121.448V18.3957H123.157V20.5936H121.448V25.3035C121.448 25.9707 121.795 26.3043 122.49 26.3043L123.138 26.2062Z" fill="#EDF2FD"/>
<path d="M133.319 27.364C132.323 28.3976 131.02 28.9143 129.409 28.9143C127.798 28.9143 126.495 28.3976 125.5 27.364C124.505 26.3174 124.007 25.0418 124.007 23.5373C124.007 22.0327 124.505 20.7637 125.5 19.7302C126.495 18.6835 127.798 18.1602 129.409 18.1602C131.02 18.1602 132.323 18.6835 133.319 19.7302C134.314 20.7637 134.812 22.0327 134.812 23.5373C134.812 25.0418 134.314 26.3174 133.319 27.364ZM127.523 21.3982C127.039 21.9215 126.796 22.6346 126.796 23.5373C126.796 24.44 127.039 25.153 127.523 25.6763C128.021 26.1996 128.65 26.4613 129.409 26.4613C130.169 26.4613 130.791 26.1996 131.275 25.6763C131.773 25.153 132.022 24.44 132.022 23.5373C132.022 22.6346 131.773 21.9215 131.275 21.3982C130.791 20.8749 130.169 20.6133 129.409 20.6133C128.65 20.6133 128.021 20.8749 127.523 21.3982Z" fill="#EDF2FD"/>
<path d="M139.47 28.3256C139.116 28.6658 138.664 28.8358 138.114 28.8358C137.564 28.8358 137.112 28.6658 136.759 28.3256C136.405 27.9724 136.228 27.521 136.228 26.9715C136.228 26.4351 136.405 25.9903 136.759 25.6371C137.112 25.2708 137.564 25.0876 138.114 25.0876C138.651 25.0876 139.096 25.2708 139.45 25.6371C139.817 25.9903 140 26.4351 140 26.9715C140 27.521 139.823 27.9724 139.47 28.3256Z" fill="#DB323E"/>
<path d="M21.0174 12.8859C22.721 12.8873 24.3812 13.4228 25.7639 14.4169C27.1466 15.411 28.182 16.8136 28.7243 18.4269C28.7486 18.5016 28.7961 18.5666 28.8598 18.6126C28.9236 18.6587 29.0003 18.6833 29.0789 18.683H36.7719C36.8265 18.6831 36.8804 18.6713 36.93 18.6484C36.9795 18.6255 37.0234 18.5921 37.0587 18.5504C37.0939 18.5088 37.1196 18.46 37.134 18.4074C37.1484 18.3548 37.1511 18.2997 37.1419 18.2459C36.4901 14.4451 34.5141 10.9969 31.563 8.51098C28.612 6.02507 24.8761 4.66157 21.0159 4.66157C17.1557 4.66157 13.4198 6.02507 10.4688 8.51098C7.51777 10.9969 5.54168 14.4451 4.88992 18.2459C4.88074 18.2997 4.88344 18.3548 4.89782 18.4074C4.9122 18.46 4.9379 18.5088 4.97315 18.5504C5.00839 18.5921 5.05231 18.6255 5.10185 18.6484C5.15138 18.6713 5.20532 18.6831 5.2599 18.683H11.1045C11.1598 18.6823 11.2146 18.6943 11.2646 18.7179C11.3146 18.7416 11.3586 18.7763 11.3931 18.8195C11.4287 18.8613 11.4542 18.9107 11.4678 18.9638C11.4814 19.017 11.4826 19.0725 11.4714 19.1262C11.2299 20.3635 11.2299 21.6356 11.4714 22.8729C11.4826 22.9266 11.4814 22.9821 11.4678 23.0353C11.4542 23.0884 11.4287 23.1378 11.3931 23.1796C11.3586 23.2228 11.3146 23.2575 11.2646 23.2812C11.2146 23.3048 11.1598 23.3168 11.1045 23.3161H5.26144C5.20678 23.3157 5.1527 23.3274 5.10303 23.3502C5.05337 23.373 5.00933 23.4064 4.97403 23.4481C4.93873 23.4898 4.91304 23.5388 4.89877 23.5915C4.8845 23.6442 4.882 23.6994 4.89145 23.7532C5.46396 27.0861 7.05669 30.1597 9.45032 32.5508C11.844 34.942 14.9208 36.533 18.2571 37.1049C18.3109 37.1141 18.366 37.1114 18.4186 37.0971C18.4712 37.0829 18.5201 37.0573 18.5618 37.0223C18.6036 36.9873 18.6373 36.9437 18.6605 36.8944C18.6836 36.8451 18.6958 36.7913 18.6962 36.7369V30.9045C18.6963 30.8492 18.7087 30.7947 18.7323 30.7448C18.756 30.6949 18.7903 30.6507 18.833 30.6156C18.8757 30.5805 18.9255 30.5551 18.9791 30.5415C19.0327 30.5278 19.0886 30.526 19.1429 30.5364C20.3813 30.7797 21.6552 30.7797 22.8935 30.5364C22.9478 30.526 23.0037 30.5278 23.0573 30.5415C23.1109 30.5551 23.1608 30.5805 23.2034 30.6156C23.2461 30.6507 23.2805 30.6949 23.3041 30.7448C23.3278 30.7947 23.3401 30.8492 23.3402 30.9045V36.743C23.3401 36.7975 23.3519 36.8513 23.3748 36.9008C23.3978 36.9502 23.4313 36.994 23.473 37.0291C23.5147 37.0642 23.5636 37.0897 23.6163 37.1039C23.6689 37.118 23.7241 37.1205 23.7778 37.1111C25.6103 36.8003 27.3758 36.1779 28.9975 35.2707C29.0682 35.2301 29.1503 35.214 29.2311 35.2248C29.3119 35.2356 29.3868 35.2728 29.4443 35.3305L32.3274 38.1616C32.3676 38.2012 32.3983 38.2493 32.4173 38.3024C32.4362 38.3555 32.4429 38.4122 32.4368 38.4682C32.4308 38.5242 32.4121 38.5782 32.3823 38.626C32.3525 38.6738 32.3122 38.7143 32.2645 38.7444C27.8252 41.5512 22.4947 42.5958 17.3229 41.6723C12.1511 40.7488 7.5129 37.9242 4.32187 33.7549C1.13084 29.5856 -0.381711 24.3737 0.0821332 19.1459C0.545977 13.9181 2.95259 9.05328 6.82797 5.50963C10.7033 1.96598 15.7665 0.000388233 21.0203 5.75051e-08C26.2741 -0.000388118 31.3376 1.96446 35.2135 5.50754C39.0894 9.05062 41.4967 13.9151 41.9613 19.1428C42.4259 24.3706 40.9142 29.5826 37.7238 33.7524C37.6673 33.8248 37.6397 33.9154 37.6463 34.0069C37.6528 34.0984 37.693 34.1842 37.7591 34.2478L38.2749 34.7539C38.3448 34.8245 38.3841 34.9199 38.3841 35.0192C38.3841 35.1186 38.3448 35.2139 38.2749 35.2845L35.5407 38.0604C35.4702 38.1306 35.3746 38.1701 35.2751 38.1701C35.1755 38.1701 35.08 38.1306 35.0095 38.0604L26.5657 29.7681C26.4958 29.6974 26.4566 29.6021 26.4566 29.5028C26.4566 29.4034 26.4958 29.3081 26.5657 29.2374L26.8881 28.9108C26.958 28.8404 26.9972 28.7453 26.9972 28.6462C26.9972 28.5471 26.958 28.452 26.8881 28.3817L26.1727 27.6793C26.1106 27.6174 26.0285 27.5795 25.941 27.5725C25.8536 27.5655 25.7665 27.5897 25.6953 27.6409C24.6502 28.3734 23.447 28.8495 22.1833 29.0308C20.9195 29.2121 19.6309 29.0933 18.4217 28.6842C17.2125 28.2751 16.1168 27.5871 15.2234 26.676C14.33 25.765 13.6641 24.6564 13.2796 23.4403C12.8952 22.2242 12.803 20.9346 13.0105 19.6763C13.218 18.4179 13.7194 17.226 14.4741 16.1974C15.2287 15.1687 16.2154 14.3321 17.3541 13.7554C18.4928 13.1788 19.7515 12.8782 21.0282 12.8782M34.4353 30.3616C35.8163 28.3883 36.7413 26.1333 37.1434 23.7593C37.1529 23.7055 37.1504 23.6503 37.1361 23.5976C37.1218 23.5449 37.0962 23.496 37.0609 23.4543C37.0256 23.4126 36.9815 23.3791 36.9319 23.3563C36.8822 23.3335 36.8281 23.3219 36.7734 23.3222H29.082C29.003 23.3214 28.9259 23.3458 28.8618 23.3918C28.7977 23.4379 28.75 23.5033 28.7258 23.5783C28.4812 24.3073 28.1338 24.9978 27.6941 25.6288C27.6432 25.7014 27.6199 25.7898 27.6283 25.8781C27.6368 25.9663 27.6764 26.0487 27.7402 26.1104L28.4418 26.799C28.512 26.8691 28.6073 26.9085 28.7066 26.9085C28.8059 26.9085 28.9012 26.8691 28.9714 26.799L29.2938 26.4723C29.3641 26.4022 29.4593 26.3628 29.5587 26.3628C29.658 26.3628 29.7532 26.4022 29.8235 26.4723L33.8535 30.4306C33.8924 30.4688 33.9392 30.498 33.9906 30.5163C34.042 30.5346 34.0968 30.5415 34.1511 30.5365C34.2054 30.5316 34.258 30.5149 34.3052 30.4876C34.3525 30.4603 34.3932 30.423 34.4246 30.3785M23.4677 18.5695C22.9008 18.002 22.1544 17.6485 21.3557 17.5692C20.5571 17.49 19.7557 17.6899 19.0881 18.1348C18.4205 18.5798 17.928 19.2422 17.6946 20.0093C17.4613 20.7764 17.5014 21.6006 17.8083 22.3414C18.1151 23.0822 18.6697 23.6937 19.3774 24.0718C20.0851 24.4499 20.9022 24.571 21.6893 24.4146C22.4765 24.2583 23.185 23.834 23.694 23.2142C24.2031 22.5944 24.4812 21.8174 24.4809 21.0157C24.4811 20.5614 24.3917 20.1116 24.2179 19.6919C24.044 19.2722 23.7891 18.8908 23.4677 18.5695Z" fill="#DB323E"/>
</svg>
