<svg width="65" height="64" viewBox="0 0 65 64" fill="none" xmlns="http://www.w3.org/2000/svg">
<path d="M44.6637 37C44.1248 37 43.5987 37.0599 43.0886 37.1774C43.2916 36.6851 43.3086 36.6358 43.3161 36.6133C43.4889 36.0972 43.2145 35.5435 42.7018 35.3609C42.1916 35.1763 41.6217 35.4444 41.4284 35.9541C41.3449 36.1734 40.3707 38.5025 40.3703 38.503C40.1847 38.9473 40.3424 39.4615 40.7453 39.7251C40.7453 39.7251 42.8947 41.1328 42.8947 41.1328C43.353 41.4335 43.98 41.3006 44.2789 40.8443C44.5817 40.3824 44.4523 39.7622 43.9904 39.46L43.499 39.138C43.875 39.0481 44.2636 39 44.6637 39C47.4206 39 49.6637 41.2432 49.6637 44C49.6637 44.7621 49.4992 45.4856 49.1751 46.1515C48.6173 47.2977 50.4097 48.1826 50.9728 47.0279C51.4313 46.0869 51.6637 45.0684 51.6637 44C51.6637 40.1402 48.5236 37 44.6637 37Z" fill="white"/>
<path d="M48.6357 47.9424L46.043 46.7568C45.5415 46.5278 44.9478 46.7485 44.7173 47.2505C44.4878 47.7529 44.709 48.3462 45.2109 48.5761L45.8333 48.8606C45.4558 48.9513 45.0657 49 44.6641 49C41.9072 49 39.6641 46.7568 39.6641 44C39.6641 43.2377 39.8286 42.5141 40.1528 41.8481C40.3945 41.3515 40.1885 40.7529 39.6919 40.5112C39.1934 40.268 38.5962 40.4755 38.355 40.9721C37.8965 41.913 37.6641 42.9316 37.6641 44C37.6641 47.8598 40.8042 51 44.6641 51C45.3877 51 46.0858 50.8845 46.7551 50.6732C46.7551 50.6732 46.6172 51.2485 46.6172 51.2485C46.3261 52.4662 48.2681 52.9441 48.5625 51.7143L49.1924 49.0849C49.3037 48.6201 49.0703 48.1416 48.6357 47.9424Z" fill="white"/>
<path d="M44.6641 31C44.3265 31 43.9952 31.0253 43.6641 31.0507V16C43.6641 14.3457 42.3184 13 40.6641 13H38.6641V10C38.6641 8.3457 37.3184 7 35.6641 7H29.5635C27.9092 7 26.5635 8.3457 26.5635 10V13H21.564C21.2408 13 20.9642 13.1857 20.7354 13.4145L18.4424 11.1216C18.0518 10.731 17.4189 10.731 17.0283 11.1216L16.3212 11.8287L14.1997 9.70654C13.0298 8.53759 11.127 8.53711 9.95703 9.70703L8.54297 11.1211C7.97608 11.688 7.66406 12.4414 7.66406 13.2427C7.66406 14.0439 7.97607 14.7974 8.54297 15.3638L10.6641 17.4853L9.95703 18.1924C9.76953 18.3799 9.66406 18.6343 9.66406 18.8994C9.66406 19.1645 9.76953 19.4189 9.95703 19.6064L12.2502 21.8996L11.8569 22.2929C11.6694 22.4804 11.564 22.7348 11.564 23V54C11.564 55.6543 12.9097 57 14.564 57H44.6641C51.8325 57 57.6641 51.1684 57.6641 44C57.6641 36.8315 51.8325 31 44.6641 31ZM9.66406 13.2427C9.66406 12.9756 9.76806 12.7246 9.95703 12.5357L11.3711 11.1216C11.7603 10.731 12.3955 10.7315 12.7856 11.1211L14.9067 13.2427L12.0781 16.0713L9.95703 13.9492C9.76807 13.7607 9.66406 13.5098 9.66406 13.2427ZM17.7354 13.2427L19.1494 14.6567L13.4927 20.314L12.0781 18.8994L17.7354 13.2427ZM28.5635 10C28.5635 9.44873 29.0122 9 29.5635 9H35.6641C36.2153 9 36.6641 9.44873 36.6641 10V13H28.5635V10ZM14.564 55C14.0127 55 13.564 54.5513 13.564 54V23.4141L21.978 15H40.6641C41.2153 15 41.6641 15.4487 41.6641 16V31.3633C40.976 31.5267 40.3052 31.7347 39.6641 32.0029V26C39.6641 25.4478 39.2163 25 38.6641 25H16.6641C16.1118 25 15.6641 25.4478 15.6641 26V48C15.6641 48.5522 16.1118 49 16.6641 49H32.6669C33.7081 51.4889 35.5071 53.5777 37.7675 55H14.564ZM31.7147 43H21.6641V31H33.6641V37.1035C32.5722 38.8386 31.88 40.8444 31.7147 43ZM34.6641 29H20.6641C20.1118 29 19.6641 29.4478 19.6641 30V44C19.6641 44.5522 20.1118 45 20.6641 45H31.7147C31.7671 45.6833 31.8731 46.3501 32.0274 47H17.6641V27H37.6641V33.0629C36.946 33.5241 36.2765 34.0516 35.6641 34.6408V30C35.6641 29.4478 35.2163 29 34.6641 29ZM44.6641 55C38.5986 55 33.6641 50.0654 33.6641 44C33.6641 37.9346 38.5986 33 44.6641 33C50.7295 33 55.6641 37.9346 55.6641 44C55.6641 50.0654 50.7295 55 44.6641 55Z" fill="white"/>
<path d="M28.4868 33.4316C28.1138 32.8906 27.2144 32.8906 26.8413 33.4316C26.1865 34.3794 24.6641 36.7217 24.6641 38C24.6641 39.6543 26.0098 41 27.6641 41C29.3184 41 30.6641 39.6543 30.6641 38C30.6641 36.7217 29.1416 34.3794 28.4868 33.4316ZM27.6641 39C27.1128 39 26.6641 38.5513 26.6641 38.001C26.6724 37.6953 27.0879 36.8242 27.6641 35.8535C28.2398 36.8237 28.6558 37.6948 28.6641 38.001C28.6636 38.5518 28.2153 39 27.6641 39Z" fill="white"/>
</svg>
