<svg width="33" height="32" viewBox="0 0 33 32" fill="none" xmlns="http://www.w3.org/2000/svg">
<path d="M8.5 24C7.95 24 7.47917 23.8042 7.0875 23.4125C6.69583 23.0208 6.5 22.55 6.5 22V10C6.5 9.45 6.69583 8.97917 7.0875 8.5875C7.47917 8.19583 7.95 8 8.5 8H24.5C25.05 8 25.5208 8.19583 25.9125 8.5875C26.3042 8.97917 26.5 9.45 26.5 10V22C26.5 22.55 26.3042 23.0208 25.9125 23.4125C25.5208 23.8042 25.05 24 24.5 24H8.5ZM24.5 12L17.025 16.675C16.9417 16.725 16.8542 16.7625 16.7625 16.7875C16.6708 16.8125 16.5833 16.825 16.5 16.825C16.4167 16.825 16.3292 16.8125 16.2375 16.7875C16.1458 16.7625 16.0583 16.725 15.975 16.675L8.5 12V22H24.5V12ZM16.5 15L24.5 10H8.5L16.5 15ZM8.5 12.25V10.775V10.8V10.7875V12.25Z" fill="white"/>
</svg>
