<svg width="81" height="80" viewBox="0 0 81 80" fill="none" xmlns="http://www.w3.org/2000/svg">
<path d="M44.8266 64.2232C44.8984 56.8803 43.0368 50.9091 40.6688 50.8859C38.3006 50.8629 36.3227 56.7967 36.251 64.1394C36.1792 71.4823 38.0408 77.4536 40.4088 77.4767C42.777 77.4999 44.7549 71.5661 44.8266 64.2232Z" fill="white"/>
<path d="M31.0927 62.5555C35.1233 56.4173 36.7858 50.3875 34.8063 49.0877C32.8266 47.7878 27.9545 51.7101 23.9241 57.8483C19.8935 63.9866 18.231 70.0162 20.2105 71.3162C22.1902 72.616 27.0622 68.6938 31.0927 62.5555Z" fill="white"/>
<path d="M20.4243 53.7488C27.1337 50.7645 31.7924 46.591 30.8299 44.4272C29.8675 42.2634 23.6483 42.9286 16.9388 45.9131C10.2294 48.8974 5.57068 53.0709 6.53316 55.2347C7.49563 57.3986 13.7149 56.7333 20.4243 53.7488Z" fill="white"/>
<path d="M30.0245 38.3592C30.3848 36.0186 24.7933 33.2155 17.5357 32.0984C10.2779 30.9813 4.10232 31.9733 3.74206 34.3139C3.38181 36.6546 8.97329 39.4574 16.231 40.5746C23.4887 41.6917 29.6643 40.6997 30.0245 38.3592Z" fill="white"/>
<path d="M32.6305 32.7832C34.1988 31.0088 31.0097 25.6282 25.5074 20.7653C20.0052 15.9024 14.2734 13.3988 12.7051 15.1733C11.1368 16.9478 14.3259 22.3285 19.8282 27.1914C25.3305 32.0542 31.0623 34.5578 32.6305 32.7832Z" fill="white"/>
<path d="M37.8193 29.5245C40.0981 28.8797 40.3245 22.629 38.3251 15.5633C36.3257 8.49751 32.8576 3.29233 30.5789 3.93714C28.3001 4.58196 28.0737 10.8326 30.0731 17.8984C32.0725 24.964 35.5406 30.1693 37.8193 29.5245Z" fill="white"/>
<path d="M51.9109 18.1182C54.0493 11.0933 53.9463 4.8394 51.6807 4.14978C49.4151 3.46015 45.845 8.59592 43.7066 15.6209C41.5683 22.6458 41.6714 28.8997 43.937 29.5893C46.2026 30.2789 49.7727 25.1432 51.9109 18.1182Z" fill="white"/>
<path d="M61.9795 27.6104C67.5759 22.856 70.8696 17.5387 69.3362 15.734C67.8029 13.9292 62.0232 16.3203 56.4271 21.0745C50.8307 25.8289 47.5371 31.1462 49.0704 32.951C50.6037 34.7558 56.3834 32.3648 61.9795 27.6104Z" fill="white"/>
<path d="M65.3085 41.043C72.5869 40.0693 78.2325 37.3771 77.9184 35.0298C77.6045 32.6826 71.4496 31.5691 64.1712 32.5427C56.893 33.5165 51.2472 36.2086 51.5613 38.556C51.8754 40.9032 58.0301 42.0168 65.3085 41.043Z" fill="white"/>
<path d="M74.6978 55.9056C75.7027 53.7613 71.1272 49.4968 64.4779 46.3807C57.8288 43.2645 51.6238 42.4768 50.6189 44.6211C49.6139 46.7656 54.1894 51.0301 60.8387 54.1463C67.4878 57.2623 73.6928 58.0501 74.6978 55.9056Z" fill="white"/>
<path d="M60.7116 71.7278C62.7164 70.4673 61.173 64.4059 57.2644 58.1894C53.3558 51.9729 48.5618 47.9555 46.557 49.216C44.5522 50.4765 46.0956 56.5379 50.0042 62.7544C53.9129 68.9709 58.7068 72.9885 60.7116 71.7278Z" fill="white"/>
</svg>
