<svg width="147" height="56" viewBox="0 0 147 56" fill="none" xmlns="http://www.w3.org/2000/svg">
<g clip-path="url(#clip0_151_131)">
<path d="M35.4331 0C29.7314 0 24.2633 2.25876 20.2317 6.27939L7.07399 19.401C3.04231 23.4216 0.777344 28.8747 0.777344 34.5608C0.777344 46.4014 10.4024 56 22.2755 56C27.9771 56 33.4452 53.7411 37.4769 49.7205L46.5781 40.6442C46.5781 40.6441 46.5783 40.6444 46.5781 40.6442L73.096 14.199C75.0215 12.2788 77.6331 11.2 80.3561 11.2C84.9151 11.2 88.7802 14.1632 90.1202 18.2636L98.4892 9.91753C94.6713 3.95424 87.9768 0 80.3561 0C74.6545 0 69.1864 2.25876 65.1547 6.27939L29.5356 41.801C27.6101 43.7213 24.9986 44.8 22.2755 44.8C16.6049 44.8 12.0081 40.2158 12.0081 34.5608C12.0081 31.8451 13.0898 29.2408 15.0153 27.3205L28.1729 14.199C30.0984 12.2788 32.71 11.2 35.4331 11.2C39.9922 11.2 43.8571 14.1633 45.1971 18.2639L53.5663 9.91773C49.7484 3.95435 43.0539 0 35.4331 0Z" fill="white"/>
<path d="M74.4588 41.801C72.5333 43.7213 69.9218 44.8 67.1987 44.8C62.6403 44.8 58.7756 41.8376 57.4352 37.7378L49.0664 46.0837C52.8845 52.0462 59.5786 56 67.1987 56C72.9003 56 78.3684 53.7411 82.4001 49.7205L118.019 14.199C119.945 12.2788 122.556 11.2 125.279 11.2C130.95 11.2 135.547 15.7842 135.547 21.4392C135.547 24.1549 134.465 26.7592 132.539 28.6795L119.382 41.801C117.456 43.7213 114.845 44.8 112.122 44.8C107.563 44.8 103.698 41.837 102.358 37.7369L93.9891 46.083C97.807 52.046 104.501 56 112.122 56C117.823 56 123.291 53.7411 127.323 49.7205L140.481 36.599C144.512 32.5784 146.777 27.1253 146.777 21.4392C146.777 9.59866 137.153 0 125.279 0C119.578 0 114.11 2.25876 110.078 6.27939L74.4588 41.801Z" fill="white"/>
</g>
<defs>
<clipPath id="clip0_151_131">
<rect width="146" height="56" fill="white" transform="translate(0.777344)"/>
</clipPath>
</defs>
</svg>
