<svg width="178" height="80" viewBox="0 0 178 80" fill="none" xmlns="http://www.w3.org/2000/svg">
<path d="M77.3102 64.6263C71.5214 75.0437 59.7349 80 47.8171 80H0C49.7778 73.7778 84.4444 48.8889 88.8889 14.2222C93.3333 48.8889 128 73.7778 177.778 80H129.961C118.043 80 106.256 75.0437 100.468 64.6263C94.202 53.3511 90.2101 40.5927 88.8889 26.6667C87.5676 40.5927 83.5758 53.3511 77.3102 64.6263Z" fill="white"/>
<path d="M49.9648 60.9445C47.1725 62.5166 44.2352 63.9932 41.1597 65.3687C39.4126 59.3339 38.7698 53.0023 39.2825 46.6951C39.9607 38.3511 42.6404 30.3068 47.0841 23.2752C51.528 16.2436 57.5986 10.4412 64.7584 6.38236C71.9182 2.32352 79.9463 0.13335 88.1314 0.00590146C96.3165 -0.121565 104.406 1.81762 111.683 5.65166C118.961 9.48569 125.201 15.0962 129.852 21.9863C134.503 28.8764 137.421 36.8334 138.347 45.1524C139.105 51.9568 138.511 58.8318 136.619 65.3687C133.543 63.9932 130.606 62.5164 127.813 60.9444C128.991 56.1653 129.321 51.1936 128.772 46.2677C128.025 39.5593 125.672 33.1428 121.922 27.5867C118.171 22.0306 113.139 17.5061 107.27 14.4144C101.402 11.3226 94.8784 9.75888 88.2781 9.86165C81.6775 9.96443 75.2038 11.7306 69.4302 15.0036C63.6566 18.2766 58.7611 22.9556 55.1776 28.626C51.5942 34.2964 49.4333 40.7831 48.8864 47.5118C48.5188 52.0345 48.8878 56.5728 49.9648 60.9445Z" fill="white"/>
</svg>
